<svg width="31" height="31" viewBox="0 0 31 31" fill="none" xmlns="http://www.w3.org/2000/svg">
<circle cx="15.0792" cy="15.5049" r="15" fill="#FABE99"/>
<path d="M18.8079 20.6497C18.435 21.0852 17.7609 21.0836 17.3901 20.6463C17.0944 20.2975 17.0956 19.7856 17.3929 19.4383L19.7045 16.738L8.93973 16.7259C8.38755 16.7253 7.94038 16.2773 7.94085 15.7251L7.94088 15.6956C7.94135 15.1432 8.38961 14.6958 8.942 14.6964L19.6743 14.7085L17.4069 12.0353C17.1115 11.687 17.1127 11.1757 17.4098 10.8288C17.7821 10.394 18.4551 10.3956 18.8253 10.8321L22.4487 15.1038C22.7664 15.4783 22.7651 16.028 22.4457 16.401L18.8079 20.6497Z" fill="#FBE6D9"/>
</svg>
