<svg width="31" height="30" viewBox="0 0 31 30" fill="none" xmlns="http://www.w3.org/2000/svg">
<circle cx="15.0792" cy="15" r="15" fill="#F4C1A2"/>
<path d="M18.8079 20.1448C18.435 20.5803 17.7609 20.5787 17.3901 20.1414C17.0944 19.7926 17.0956 19.2807 17.3929 18.9333L19.7045 16.2331L8.93973 16.221C8.38755 16.2204 7.94038 15.7723 7.94085 15.2202L7.94088 15.1906C7.94135 14.6382 8.38961 14.1909 8.942 14.1915L19.6743 14.2036L17.4069 11.5303C17.1115 11.182 17.1127 10.6707 17.4098 10.3238C17.7821 9.88907 18.4551 9.89065 18.8253 10.3272L22.4487 14.5988C22.7664 14.9733 22.7651 15.5231 22.4457 15.8961L18.8079 20.1448Z" fill="#FBE6D9"/>
</svg>
